<mxfile host="65bd71144e">
    <diagram id="AQWT-SZpoU-B1tJkZJiK" name="ページ1">
        <mxGraphModel dx="503" dy="450" grid="1" gridSize="10" guides="1" tooltips="1" connect="1" arrows="1" fold="1" page="1" pageScale="1" pageWidth="827" pageHeight="1169" math="0" shadow="0">
            <root>
                <mxCell id="0"/>
                <mxCell id="1" parent="0"/>
                <mxCell id="3" value="&lt;span id=&quot;docs-internal-guid-11512c59-7fff-9a0a-a14a-220661908b40&quot;&gt;&lt;h1 style=&quot;line-height:1.38;margin-top:24pt;margin-bottom:6pt;&quot; dir=&quot;ltr&quot;&gt;&lt;span style=&quot;font-size: 19pt; font-family: Arial, sans-serif; color: rgb(0, 0, 0); background-color: transparent; font-variant-numeric: normal; font-variant-east-asian: normal; font-variant-alternates: normal; font-variant-position: normal; font-variant-emoji: normal; vertical-align: baseline; white-space-collapse: preserve;&quot;&gt;就労継続支援A型事業所向けスコア管理システム&amp;nbsp;&lt;/span&gt;&lt;/h1&gt;&lt;/span&gt;" style="text;html=1;align=center;verticalAlign=middle;whiteSpace=wrap;rounded=0;" vertex="1" parent="1">
                    <mxGeometry x="60" y="130" width="410" height="30" as="geometry"/>
                </mxCell>
            </root>
        </mxGraphModel>
    </diagram>
</mxfile>